<?xml version="1.0" encoding="UTF-8"?>
<svg width="48px" height="48px" viewBox="0 0 48 48" version="1.1" xmlns="http://www.w3.org/2000/svg" xmlns:xlink="http://www.w3.org/1999/xlink">
    <title>Group</title>
    <g id="Page-1" stroke="none" stroke-width="1" fill="none" fill-rule="evenodd">
        <g id="Group">
            <g id="siasep-logo" transform="translate(0.4688, 3.5625)" fill="#FFFFFF">
                <path d="M23.6783291,20.625 L47.15625,20.625 L40.1736985,32.6921533 C35.2691072,32.6921533 30.3648943,32.6921533 25.4603029,32.6921533 L27.6537052,28.9015967 L37.9848382,28.9015967 L40.5805851,24.4159347 L25.8668109,24.4159347 L20.9039307,32.9924328 L16.2885126,40.96875 L11.90625,40.96875 L23.6779506,20.6253782 L23.6783291,20.625 Z" id="Path" fill-opacity="0.9"></path>
                <polygon id="Path" fill-opacity="0.9" points="38.5308717 35.625 35.4249201 40.96875 20.71875 40.96875 22.9110752 37.1966248 33.237513 37.1966248 34.1511395 35.625 38.53125 35.625"></polygon>
                <path d="M11.7025253,0.1875 L23.4375,20.53125 L11.702148,40.875 L0,20.53125 L6.94076909,8.46500699 L16.5133329,24.9610229 L19.0685321,20.53125 L11.7066758,7.76875395 L10.9795836,9.03267447 L8.79377898,5.24356026 L11.7025253,0.1875 Z M6.9452969,16.0455046 L4.36519476,20.5308718 L11.7066758,33.2933679 L14.3007387,28.7966548 L6.9452969,16.0455046 Z" id="Combined-Shape" fill-opacity="0.8"></path>
                <path d="M23.678077,20.34375 L47.15625,20.34375 L40.1736236,8.27637242 C33.8083358,8.27637242 27.443048,8.27637242 21.0777603,8.27637242 L18.4819855,3.79062698 L33.1955392,3.79062698 L33.9268073,5.0541693 L38.309117,5.0541693 L35.384423,0 L11.90625,0 L18.8888764,12.0673776 C25.2541642,12.0673776 31.619452,12.0673776 37.9847397,12.0673776 L40.5805145,16.553123 L25.8669608,16.553123 L25.1356927,15.2895807 L20.753383,15.2895807 L23.678077,20.34375 Z" id="Path" fill-opacity="0.5"></path>
            </g>
            <rect id="Rectangle" x="0" y="0" width="48" height="48"></rect>
        </g>
    </g>
</svg>