<?xml version="1.0" encoding="UTF-8"?>
<svg width="512px" height="512px" viewBox="0 0 512 512" version="1.1" xmlns="http://www.w3.org/2000/svg" xmlns:xlink="http://www.w3.org/1999/xlink">
    <title>Group</title>
    <g id="Page-1" stroke="none" stroke-width="1" fill="none" fill-rule="evenodd">
        <g id="Group">
            <rect id="Rectangle" x="0" y="0" width="512" height="512"></rect>
            <g id="silegit" transform="translate(4, 4)" fill="#FFFFFF" fill-opacity="0.85">
                <path d="M113.91808,138.08192 C123.40091,138.08192 132.625569,139.243691 141.428217,141.428217 C139.243691,132.615639 138.08192,123.40091 138.08192,113.91808 C138.08192,51.0037236 189.085643,0 252,0 C314.914357,0 365.91808,51.0086885 365.91808,113.91808 C365.91808,123.40091 364.756309,132.625569 362.571783,141.428217 C371.384361,139.243691 380.59909,138.08192 390.08192,138.08192 C452.996276,138.08192 504,189.085643 504,252 C504,314.914357 452.991312,365.91808 390.08192,365.91808 C380.59909,365.91808 371.374431,364.756309 362.571783,362.571783 C364.756309,371.384361 365.91808,380.59909 365.91808,390.08192 C365.91808,452.996276 314.914357,504 252,504 C189.085643,504 138.08192,452.991312 138.08192,390.08192 C138.08192,380.59909 139.243691,371.379396 141.428217,362.571783 C132.615639,364.756309 123.40091,365.91808 113.91808,365.91808 C51.0037236,365.91808 0,314.914357 0,252 C0,189.085643 51.0086885,138.08192 113.91808,138.08192 Z M252.004965,92.6735623 L320.857261,161.525859 L321.304096,161.183285 C330.498966,147.728589 335.880844,131.448904 335.880844,113.91808 C335.880844,67.5961936 298.326851,30.0422011 252,30.0422011 C205.678113,30.0422011 168.119156,67.5912288 168.119156,113.91808 C168.119156,131.448904 173.501034,147.728589 182.695904,161.183285 L183.147704,161.525859 L252,92.6735623 L252.004965,92.6735623 Z M342.479106,183.147704 L411.331403,252 L342.479106,320.852296 L342.816715,321.299131 C356.271411,330.494001 372.551096,335.875879 390.08192,335.875879 C436.403806,335.875879 473.957799,298.321887 473.957799,251.995035 C473.957799,205.673149 436.408771,168.114191 390.08192,168.114191 C372.546132,168.114191 356.266446,173.49607 342.806785,182.700869 L342.469177,183.142739 L342.479106,183.147704 Z M320.857261,342.479106 L252.004965,411.331403 L183.152669,342.479106 L182.705834,342.816715 C173.505999,356.271411 168.124121,372.556061 168.124121,390.086885 C168.124121,436.408771 205.678113,473.962764 252.004965,473.962764 C298.326851,473.962764 335.885809,436.413736 335.885809,390.086885 C335.885809,372.556061 330.50393,356.271411 321.304096,342.816715 L320.857261,342.479106 L320.857261,342.479106 Z M161.525859,320.857261 L92.6735623,252.004965 L161.525859,183.152669 L161.18825,182.710799 C147.728589,173.510964 131.448904,168.124121 113.913115,168.124121 C67.5912288,168.124121 30.0372362,205.678113 30.0372362,252.004965 C30.0372362,298.326851 67.586264,335.885809 113.913115,335.885809 C131.443939,335.885809 147.723624,330.50393 161.17832,321.309061 L161.520894,320.862226 L161.525859,320.857261 Z M252,135.162598 L204.198593,182.964005 L252,230.765412 L299.801407,182.964005 L252,135.162598 Z M182.95904,204.203558 L135.157633,252.004965 L182.95904,299.806372 L230.760447,252.004965 L182.95904,204.203558 L182.95904,204.203558 Z M204.203558,321.045925 L252.004965,368.847331 L299.806372,321.045925 L252.004965,273.244518 L204.203558,321.045925 Z M321.045925,299.801407 L368.847331,252 L321.045925,204.198593 L273.244518,252 L321.045925,299.801407 Z" id="Shape"></path>
            </g>
        </g>
    </g>
</svg>